<mxfile host="app.diagrams.net" modified="2022-04-22T16:18:05.971Z" agent="5.0 (Windows)" etag="_CnySnpsBoL2nugBAylF" version="17.4.6" type="github">
  <diagram name="Page-1" id="ad52d381-51e7-2e0d-a935-2d0ddd2fd229">
    <mxGraphModel dx="2924" dy="969" grid="1" gridSize="10" guides="1" tooltips="1" connect="1" arrows="1" fold="1" page="1" pageScale="1" pageWidth="1100" pageHeight="850" background="none" math="0" shadow="0">
      <root>
        <mxCell id="0" />
        <mxCell id="1" parent="0" />
        <mxCell id="phuruyp7ytMzcmOInOMX-62" value="" style="rounded=1;whiteSpace=wrap;html=1;shadow=0;fontFamily=Lucida Console;fontSize=10;fontColor=#333333;strokeColor=none;fillColor=#FFDED4;" vertex="1" parent="1">
          <mxGeometry x="-70" y="450" width="200" height="60" as="geometry" />
        </mxCell>
        <mxCell id="phuruyp7ytMzcmOInOMX-40" value="" style="rounded=0;whiteSpace=wrap;html=1;fontSize=16;strokeColor=none;fillColor=#F0F0F0;shadow=0;" vertex="1" parent="1">
          <mxGeometry x="570" y="190" width="260" height="840" as="geometry" />
        </mxCell>
        <mxCell id="phuruyp7ytMzcmOInOMX-2" value="Tasks flow" style="text;html=1;align=left;verticalAlign=middle;resizable=0;points=[];autosize=1;strokeColor=none;fillColor=none;fontSize=15;fontColor=#FF66B3;fontStyle=1" vertex="1" parent="1">
          <mxGeometry x="-60" y="460" width="90" height="20" as="geometry" />
        </mxCell>
        <mxCell id="phuruyp7ytMzcmOInOMX-44" value="&lt;font style=&quot;font-size: 12px&quot;&gt;sync&lt;/font&gt;" style="edgeStyle=orthogonalEdgeStyle;rounded=0;orthogonalLoop=1;jettySize=auto;html=1;entryX=1;entryY=0.5;entryDx=0;entryDy=0;fontSize=15;startArrow=none;startFill=0;fontStyle=1" edge="1" parent="1" source="phuruyp7ytMzcmOInOMX-5" target="phuruyp7ytMzcmOInOMX-17">
          <mxGeometry relative="1" as="geometry" />
        </mxCell>
        <mxCell id="phuruyp7ytMzcmOInOMX-5" value="&lt;div&gt;Tasks&lt;/div&gt;&lt;div&gt;dashboard&lt;br&gt;&lt;/div&gt;" style="rounded=1;whiteSpace=wrap;html=1;fillColor=#6a00ff;fontColor=#ffffff;strokeColor=#3700CC;" vertex="1" parent="1">
          <mxGeometry x="910" y="380" width="120" height="60" as="geometry" />
        </mxCell>
        <mxCell id="phuruyp7ytMzcmOInOMX-58" value="sync" style="edgeStyle=orthogonalEdgeStyle;rounded=0;orthogonalLoop=1;jettySize=auto;html=1;fontFamily=Lucida Console;fontSize=10;fontColor=#333333;startArrow=none;startFill=0;fontStyle=1" edge="1" parent="1" source="phuruyp7ytMzcmOInOMX-6" target="phuruyp7ytMzcmOInOMX-49">
          <mxGeometry relative="1" as="geometry">
            <Array as="points">
              <mxPoint x="640" y="580" />
              <mxPoint x="640" y="580" />
            </Array>
          </mxGeometry>
        </mxCell>
        <mxCell id="phuruyp7ytMzcmOInOMX-6" value="&lt;div&gt;Accounting&lt;/div&gt;&lt;div&gt;dashboard&lt;br&gt;&lt;/div&gt;" style="rounded=1;whiteSpace=wrap;html=1;fillColor=#6a00ff;fontColor=#ffffff;strokeColor=#3700CC;" vertex="1" parent="1">
          <mxGeometry x="910" y="550" width="120" height="60" as="geometry" />
        </mxCell>
        <mxCell id="phuruyp7ytMzcmOInOMX-60" value="sync" style="edgeStyle=orthogonalEdgeStyle;rounded=0;orthogonalLoop=1;jettySize=auto;html=1;entryX=0.5;entryY=1;entryDx=0;entryDy=0;fontFamily=Lucida Console;fontSize=10;fontColor=#333333;startArrow=none;startFill=0;fontStyle=1" edge="1" parent="1" source="phuruyp7ytMzcmOInOMX-7" target="phuruyp7ytMzcmOInOMX-49">
          <mxGeometry relative="1" as="geometry">
            <Array as="points">
              <mxPoint x="970" y="760" />
              <mxPoint x="475" y="760" />
            </Array>
          </mxGeometry>
        </mxCell>
        <mxCell id="phuruyp7ytMzcmOInOMX-7" value="&lt;div&gt;Analytics&lt;/div&gt;&lt;div&gt;dashboard&lt;br&gt;&lt;/div&gt;" style="rounded=1;whiteSpace=wrap;html=1;fillColor=#6a00ff;fontColor=#ffffff;strokeColor=#3700CC;" vertex="1" parent="1">
          <mxGeometry x="910" y="820" width="120" height="60" as="geometry" />
        </mxCell>
        <mxCell id="phuruyp7ytMzcmOInOMX-14" value="Services" style="text;html=1;align=center;verticalAlign=middle;resizable=0;points=[];autosize=1;strokeColor=none;fillColor=none;fontSize=21;" vertex="1" parent="1">
          <mxGeometry x="430" y="280" width="100" height="30" as="geometry" />
        </mxCell>
        <mxCell id="phuruyp7ytMzcmOInOMX-16" value="Estimation service" style="rounded=1;whiteSpace=wrap;html=1;strokeColor=#2D7600;fillColor=#60a917;fontColor=#ffffff;" vertex="1" parent="1">
          <mxGeometry x="150" y="690" width="150" height="60" as="geometry" />
        </mxCell>
        <mxCell id="phuruyp7ytMzcmOInOMX-33" value="rw" style="edgeStyle=orthogonalEdgeStyle;rounded=0;orthogonalLoop=1;jettySize=auto;html=1;entryX=1;entryY=0;entryDx=0;entryDy=52.5;entryPerimeter=0;dashed=1;startArrow=classic;startFill=1;fontStyle=1" edge="1" parent="1" source="phuruyp7ytMzcmOInOMX-17" target="phuruyp7ytMzcmOInOMX-21">
          <mxGeometry relative="1" as="geometry">
            <Array as="points">
              <mxPoint x="360" y="412" />
              <mxPoint x="360" y="412" />
            </Array>
          </mxGeometry>
        </mxCell>
        <mxCell id="phuruyp7ytMzcmOInOMX-63" style="edgeStyle=orthogonalEdgeStyle;rounded=0;orthogonalLoop=1;jettySize=auto;html=1;fontFamily=Lucida Console;fontSize=10;fontColor=#FF66B3;startArrow=none;startFill=0;endArrow=oval;endFill=1;fillColor=#d80073;strokeColor=#A50040;" edge="1" parent="1" source="phuruyp7ytMzcmOInOMX-17" target="phuruyp7ytMzcmOInOMX-62">
          <mxGeometry relative="1" as="geometry">
            <Array as="points">
              <mxPoint x="70" y="490" />
            </Array>
          </mxGeometry>
        </mxCell>
        <mxCell id="phuruyp7ytMzcmOInOMX-78" value="async" style="edgeStyle=orthogonalEdgeStyle;rounded=0;orthogonalLoop=1;jettySize=auto;html=1;fontFamily=Helvetica;fontSize=12;fontColor=#660033;startArrow=none;startFill=0;endArrow=classic;endFill=1;strokeColor=#A50040;fillColor=#d80073;fontStyle=1" edge="1" parent="1" source="phuruyp7ytMzcmOInOMX-17" target="phuruyp7ytMzcmOInOMX-49">
          <mxGeometry relative="1" as="geometry" />
        </mxCell>
        <mxCell id="phuruyp7ytMzcmOInOMX-17" value="Tasks service" style="rounded=1;whiteSpace=wrap;html=1;strokeColor=#2D7600;fillColor=#60a917;fontColor=#ffffff;" vertex="1" parent="1">
          <mxGeometry x="400" y="365" width="150" height="90" as="geometry" />
        </mxCell>
        <mxCell id="phuruyp7ytMzcmOInOMX-21" value="Tasks " style="shape=cylinder3;whiteSpace=wrap;html=1;boundedLbl=1;backgroundOutline=1;size=15;rounded=0;strokeColor=default;labelPosition=center;verticalLabelPosition=top;align=center;verticalAlign=bottom;" vertex="1" parent="1">
          <mxGeometry x="180" y="360" width="60" height="80" as="geometry" />
        </mxCell>
        <mxCell id="phuruyp7ytMzcmOInOMX-87" value="async" style="edgeStyle=orthogonalEdgeStyle;rounded=0;orthogonalLoop=1;jettySize=auto;html=1;fontFamily=Helvetica;fontSize=12;fontColor=#660033;startArrow=none;startFill=0;endArrow=classic;endFill=1;strokeColor=#A50040;fillColor=#d80073;fontStyle=1;entryX=0;entryY=0.167;entryDx=0;entryDy=0;entryPerimeter=0;exitX=0;exitY=0.5;exitDx=0;exitDy=0;" edge="1" parent="1" source="phuruyp7ytMzcmOInOMX-42" target="phuruyp7ytMzcmOInOMX-17">
          <mxGeometry relative="1" as="geometry">
            <Array as="points">
              <mxPoint x="370" y="213" />
              <mxPoint x="370" y="380" />
            </Array>
          </mxGeometry>
        </mxCell>
        <mxCell id="phuruyp7ytMzcmOInOMX-88" style="edgeStyle=orthogonalEdgeStyle;rounded=0;orthogonalLoop=1;jettySize=auto;html=1;fontFamily=Helvetica;fontSize=12;fontColor=#003300;startArrow=none;startFill=0;endArrow=oval;endFill=1;strokeColor=#A50040;fillColor=#d80073;" edge="1" parent="1" source="phuruyp7ytMzcmOInOMX-42" target="phuruyp7ytMzcmOInOMX-80">
          <mxGeometry relative="1" as="geometry" />
        </mxCell>
        <mxCell id="phuruyp7ytMzcmOInOMX-42" value="&lt;div&gt;Auth&lt;/div&gt;" style="rounded=1;whiteSpace=wrap;html=1;fontSize=15;strokeColor=#2D7600;fillColor=#60a917;fontColor=#ffffff;" vertex="1" parent="1">
          <mxGeometry x="405" y="182.5" width="140" height="60" as="geometry" />
        </mxCell>
        <mxCell id="phuruyp7ytMzcmOInOMX-48" value="&lt;div style=&quot;font-size: 10px;&quot;&gt;GET /&lt;/div&gt;&lt;div style=&quot;font-size: 10px;&quot;&gt;GET /my&lt;br style=&quot;font-size: 10px;&quot;&gt;&lt;/div&gt;&lt;div style=&quot;font-size: 10px;&quot;&gt;POST /new&lt;/div&gt;&lt;div style=&quot;font-size: 10px;&quot;&gt;PUT /reassign&lt;/div&gt;&lt;div style=&quot;font-size: 10px;&quot;&gt;PUT /complete: task_id&lt;br style=&quot;font-size: 10px;&quot;&gt;&lt;/div&gt;&lt;div style=&quot;font-size: 10px;&quot;&gt;&lt;br style=&quot;font-size: 10px;&quot;&gt;&lt;/div&gt;" style="text;html=1;strokeColor=none;fillColor=none;align=left;verticalAlign=top;whiteSpace=wrap;rounded=0;fontSize=10;fontColor=#333333;fontFamily=Lucida Console;labelPosition=center;verticalLabelPosition=middle;" vertex="1" parent="1">
          <mxGeometry x="580" y="420" width="190" height="90" as="geometry" />
        </mxCell>
        <mxCell id="phuruyp7ytMzcmOInOMX-70" value="rw" style="edgeStyle=orthogonalEdgeStyle;rounded=0;orthogonalLoop=1;jettySize=auto;html=1;entryX=1;entryY=0.5;entryDx=0;entryDy=0;entryPerimeter=0;fontFamily=Helvetica;fontSize=12;fontColor=#003300;startArrow=classic;startFill=1;endArrow=classic;endFill=1;strokeColor=#003300;dashed=1;fontStyle=1" edge="1" parent="1" source="phuruyp7ytMzcmOInOMX-49" target="phuruyp7ytMzcmOInOMX-69">
          <mxGeometry relative="1" as="geometry" />
        </mxCell>
        <mxCell id="phuruyp7ytMzcmOInOMX-72" value="readonly" style="edgeStyle=orthogonalEdgeStyle;rounded=0;orthogonalLoop=1;jettySize=auto;html=1;entryX=0.5;entryY=1;entryDx=0;entryDy=0;entryPerimeter=0;dashed=1;fontFamily=Helvetica;fontSize=12;fontColor=#003300;startArrow=none;startFill=0;endArrow=classic;endFill=1;strokeColor=#003300;fontStyle=1" edge="1" parent="1" source="phuruyp7ytMzcmOInOMX-49" target="phuruyp7ytMzcmOInOMX-21">
          <mxGeometry relative="1" as="geometry">
            <Array as="points">
              <mxPoint x="210" y="580" />
            </Array>
          </mxGeometry>
        </mxCell>
        <mxCell id="phuruyp7ytMzcmOInOMX-89" value="sync" style="edgeStyle=orthogonalEdgeStyle;rounded=0;orthogonalLoop=1;jettySize=auto;html=1;entryX=1;entryY=0.5;entryDx=0;entryDy=0;fontFamily=Helvetica;fontSize=12;fontColor=#003300;startArrow=none;startFill=0;endArrow=classic;endFill=1;strokeColor=#000000;fontStyle=1" edge="1" parent="1" source="phuruyp7ytMzcmOInOMX-49" target="phuruyp7ytMzcmOInOMX-16">
          <mxGeometry relative="1" as="geometry">
            <Array as="points">
              <mxPoint x="342" y="640" />
              <mxPoint x="342" y="720" />
            </Array>
          </mxGeometry>
        </mxCell>
        <mxCell id="phuruyp7ytMzcmOInOMX-90" value="async" style="edgeStyle=orthogonalEdgeStyle;rounded=0;orthogonalLoop=1;jettySize=auto;html=1;fontFamily=Helvetica;fontSize=12;fontColor=#660033;startArrow=none;startFill=0;endArrow=classic;endFill=1;strokeColor=#A50040;fillColor=#d80073;align=center;fontStyle=1" edge="1" parent="1" source="phuruyp7ytMzcmOInOMX-49" target="phuruyp7ytMzcmOInOMX-50">
          <mxGeometry relative="1" as="geometry">
            <Array as="points">
              <mxPoint x="440" y="760" />
              <mxPoint x="440" y="760" />
            </Array>
          </mxGeometry>
        </mxCell>
        <mxCell id="phuruyp7ytMzcmOInOMX-102" style="edgeStyle=orthogonalEdgeStyle;rounded=0;orthogonalLoop=1;jettySize=auto;html=1;fontFamily=Helvetica;fontSize=12;fontColor=#660033;startArrow=none;startFill=0;endArrow=oval;endFill=1;strokeColor=#A50040;fillColor=#d80073;" edge="1" parent="1" source="phuruyp7ytMzcmOInOMX-49" target="phuruyp7ytMzcmOInOMX-99">
          <mxGeometry relative="1" as="geometry">
            <Array as="points">
              <mxPoint x="440" y="810" />
              <mxPoint x="340" y="810" />
              <mxPoint x="340" y="860" />
            </Array>
          </mxGeometry>
        </mxCell>
        <mxCell id="phuruyp7ytMzcmOInOMX-49" value="Accounting service" style="rounded=1;whiteSpace=wrap;html=1;fontSize=12;strokeColor=#2D7600;fillColor=#60a917;fontColor=#ffffff;" vertex="1" parent="1">
          <mxGeometry x="400" y="560" width="150" height="100" as="geometry" />
        </mxCell>
        <mxCell id="phuruyp7ytMzcmOInOMX-50" value="Notice service" style="rounded=1;whiteSpace=wrap;html=1;fontSize=12;strokeColor=#2D7600;fillColor=#60a917;fontColor=#ffffff;" vertex="1" parent="1">
          <mxGeometry x="400" y="865" width="150" height="60" as="geometry" />
        </mxCell>
        <mxCell id="phuruyp7ytMzcmOInOMX-59" value="&lt;div&gt;GET audit log + balance&lt;/div&gt;&lt;div&gt;GET common stats + stats by days&lt;br&gt;&lt;/div&gt;&lt;div&gt;&lt;br&gt;&lt;/div&gt;" style="text;html=1;strokeColor=none;fillColor=none;align=left;verticalAlign=top;whiteSpace=wrap;rounded=0;fontSize=10;fontColor=#333333;fontFamily=Lucida Console;" vertex="1" parent="1">
          <mxGeometry x="580" y="590" width="220" height="130" as="geometry" />
        </mxCell>
        <mxCell id="phuruyp7ytMzcmOInOMX-66" value="Web server" style="text;html=1;align=center;verticalAlign=middle;resizable=0;points=[];autosize=1;strokeColor=none;fillColor=none;fontSize=21;fontFamily=Helvetica;fontColor=#333333;" vertex="1" parent="1">
          <mxGeometry x="910" y="310" width="120" height="30" as="geometry" />
        </mxCell>
        <mxCell id="phuruyp7ytMzcmOInOMX-69" value="Accounts" style="shape=cylinder3;whiteSpace=wrap;html=1;boundedLbl=1;backgroundOutline=1;size=15;rounded=0;strokeColor=default;labelPosition=center;verticalLabelPosition=top;align=center;verticalAlign=bottom;" vertex="1" parent="1">
          <mxGeometry x="-30" y="570" width="60" height="80" as="geometry" />
        </mxCell>
        <mxCell id="phuruyp7ytMzcmOInOMX-75" value="&lt;div&gt;tasks, assigns,&lt;/div&gt;&lt;div&gt;users,&lt;/div&gt;&lt;div&gt;roles&lt;br&gt;&lt;/div&gt;" style="text;html=1;strokeColor=none;fillColor=none;align=center;verticalAlign=middle;whiteSpace=wrap;rounded=0;shadow=0;fontFamily=Helvetica;fontSize=12;fontColor=#003300;" vertex="1" parent="1">
          <mxGeometry x="90" y="350" width="60" height="50" as="geometry" />
        </mxCell>
        <mxCell id="phuruyp7ytMzcmOInOMX-76" value="&lt;div&gt;accounts,&lt;/div&gt;&lt;div&gt;log, &lt;br&gt;&lt;/div&gt;&lt;div&gt;prices&lt;/div&gt;" style="text;html=1;align=center;verticalAlign=middle;resizable=0;points=[];autosize=1;strokeColor=none;fillColor=none;fontSize=12;fontFamily=Helvetica;fontColor=#003300;" vertex="1" parent="1">
          <mxGeometry x="-130" y="585" width="70" height="50" as="geometry" />
        </mxCell>
        <mxCell id="phuruyp7ytMzcmOInOMX-80" value="" style="rounded=1;whiteSpace=wrap;html=1;shadow=0;fontFamily=Lucida Console;fontSize=10;fontColor=#333333;strokeColor=none;fillColor=#FFDED4;" vertex="1" parent="1">
          <mxGeometry x="-85" y="185" width="215" height="55" as="geometry" />
        </mxCell>
        <mxCell id="phuruyp7ytMzcmOInOMX-81" value="Users flow" style="text;html=1;align=left;verticalAlign=middle;resizable=0;points=[];autosize=1;strokeColor=none;fillColor=none;fontSize=15;fontColor=#FF66B3;fontStyle=1" vertex="1" parent="1">
          <mxGeometry x="-75" y="190" width="90" height="20" as="geometry" />
        </mxCell>
        <mxCell id="phuruyp7ytMzcmOInOMX-92" value="new user, modify, delete" style="text;html=1;strokeColor=none;fillColor=none;align=left;verticalAlign=middle;whiteSpace=wrap;rounded=0;shadow=0;fontFamily=Helvetica;fontSize=12;fontColor=#660033;" vertex="1" parent="1">
          <mxGeometry x="-75" y="210" width="185" height="30" as="geometry" />
        </mxCell>
        <mxCell id="phuruyp7ytMzcmOInOMX-98" value="create, assign, complete" style="text;html=1;strokeColor=none;fillColor=none;align=left;verticalAlign=middle;whiteSpace=wrap;rounded=0;shadow=0;fontFamily=Helvetica;fontSize=12;fontColor=#660033;" vertex="1" parent="1">
          <mxGeometry x="-60" y="480" width="180" height="30" as="geometry" />
        </mxCell>
        <mxCell id="phuruyp7ytMzcmOInOMX-99" value="" style="rounded=1;whiteSpace=wrap;html=1;shadow=0;fontFamily=Lucida Console;fontSize=10;fontColor=#333333;strokeColor=none;fillColor=#FFDED4;" vertex="1" parent="1">
          <mxGeometry x="80" y="830" width="200" height="60" as="geometry" />
        </mxCell>
        <mxCell id="phuruyp7ytMzcmOInOMX-100" value="Everyday flow" style="text;html=1;align=left;verticalAlign=middle;resizable=0;points=[];autosize=1;strokeColor=none;fillColor=none;fontSize=15;fontColor=#FF66B3;fontStyle=1" vertex="1" parent="1">
          <mxGeometry x="90" y="840" width="120" height="20" as="geometry" />
        </mxCell>
        <mxCell id="phuruyp7ytMzcmOInOMX-101" value="day ends" style="text;html=1;strokeColor=none;fillColor=none;align=left;verticalAlign=middle;whiteSpace=wrap;rounded=0;shadow=0;fontFamily=Helvetica;fontSize=12;fontColor=#660033;" vertex="1" parent="1">
          <mxGeometry x="90" y="860" width="180" height="30" as="geometry" />
        </mxCell>
        <mxCell id="phuruyp7ytMzcmOInOMX-103" value="&lt;div&gt;GET managment earns today and how many users in dept&lt;/div&gt;&lt;div&gt;GET the most expensive task today/period&lt;br&gt;&lt;/div&gt;" style="text;html=1;strokeColor=none;fillColor=none;align=left;verticalAlign=top;whiteSpace=wrap;rounded=0;fontSize=10;fontColor=#333333;fontFamily=Lucida Console;" vertex="1" parent="1">
          <mxGeometry x="580" y="770" width="220" height="130" as="geometry" />
        </mxCell>
      </root>
    </mxGraphModel>
  </diagram>
</mxfile>
